<?xml version="1.0" standalone="no"?>
<!DOCTYPE svg PUBLIC "-//W3C//DTD SVG 20010904//EN"
 "http://www.w3.org/TR/2001/REC-SVG-20010904/DTD/svg10.dtd">
<svg version="1.0" xmlns="http://www.w3.org/2000/svg"
 width="512.000000pt" height="512.000000pt" viewBox="0 0 512.000000 512.000000"
 preserveAspectRatio="xMidYMid meet">
<metadata>
Created by potrace 1.14, written by Peter Selinger 2001-2017
</metadata>
<g transform="translate(0.000000,512.000000) scale(0.100000,-0.100000)"
fill="#000000" stroke="none">
<path d="M3313 4425 c-179 -41 -294 -228 -248 -405 31 -119 125 -215 240 -245
17 -5 134 -9 260 -10 127 -1 229 -5 228 -9 -1 -8 -100 -119 -219 -245 -39 -42
-86 -94 -106 -115 l-35 -40 -15 25 c-104 170 -159 242 -257 337 -176 169 -411
298 -621 341 -30 6 -66 14 -80 17 -14 4 -99 8 -190 9 -160 3 -195 -1 -362 -40
-9 -2 -48 -15 -87 -29 -458 -165 -790 -592 -836 -1076 l-6 -65 -344 -345
c-190 -190 -354 -357 -365 -373 -32 -41 -60 -130 -60 -188 0 -195 168 -352
360 -336 114 10 149 34 388 271 117 116 216 212 220 213 4 2 18 -14 32 -34 30
-45 78 -103 134 -163 161 -174 244 -325 291 -528 22 -95 28 -160 30 -372 2
-107 3 -197 4 -200 1 -3 256 -5 568 -5 l568 1 3 206 2 207 159 0 c87 0 171 3
187 7 76 18 152 80 187 154 21 43 22 59 25 395 l3 350 188 1 c212 1 230 6 250
67 10 30 5 52 -58 234 l-69 200 45 49 c25 27 85 92 133 144 48 52 100 109 116
125 15 17 73 79 128 138 56 60 105 115 109 123 19 34 25 -6 25 -164 0 -177 3
-209 26 -263 53 -126 175 -207 312 -207 108 0 213 55 272 141 63 93 62 76 62
788 0 628 -1 650 -20 703 -36 96 -99 159 -200 201 -42 18 -83 19 -686 20 -446
1 -656 -2 -691 -10z"/>
</g>
</svg>
